<svg width="38" height="38" viewBox="0 0 38 38" fill="none" xmlns="http://www.w3.org/2000/svg">
<path d="M19 3.55728C15.2403 3.55744 11.6034 4.89538 8.73995 7.33171C5.87649 9.76804 3.97338 13.1438 3.37113 16.8549C2.76888 20.566 3.5068 24.3703 5.45284 27.5871C7.39889 30.804 10.4261 33.2234 13.9927 34.4125C14.7844 34.551 15.0813 34.0761 15.0813 33.6604C15.0813 33.2844 15.0615 32.0375 15.0615 30.7114C11.0833 31.4437 10.0542 29.7417 9.7375 28.8511C9.38612 27.9849 8.82911 27.2173 8.11459 26.6146C7.56042 26.3177 6.76875 25.5854 8.09478 25.5656C8.60111 25.6206 9.08673 25.7968 9.5105 26.0793C9.93427 26.3618 10.2837 26.7423 10.5292 27.1885C10.7457 27.5775 11.0369 27.92 11.3861 28.1963C11.7352 28.4726 12.1354 28.6773 12.5638 28.7986C12.9922 28.92 13.4403 28.9556 13.8825 28.9035C14.3247 28.8513 14.7522 28.7124 15.1406 28.4948C15.2091 27.6898 15.5679 26.9372 16.15 26.3771C12.6271 25.9813 8.94584 24.6156 8.94584 18.5594C8.92359 16.9858 9.50425 15.4633 10.5688 14.3042C10.0847 12.9366 10.1413 11.4357 10.7271 10.1084C10.7271 10.1084 12.0531 9.69273 15.0813 11.7313C17.672 11.0187 20.4071 11.0187 22.9979 11.7313C26.026 9.67295 27.3521 10.1084 27.3521 10.1084C27.9379 11.4356 27.9946 12.9366 27.5104 14.3042C28.5781 15.4613 29.1593 16.9852 29.1333 18.5594C29.1333 24.6354 25.4323 25.9813 21.9094 26.3771C22.2872 26.7601 22.5783 27.2199 22.7627 27.7253C22.9471 28.2308 23.0206 28.77 22.9781 29.3063C22.9781 31.424 22.9583 33.126 22.9583 33.6605C22.9583 34.0761 23.2552 34.5709 24.0469 34.4125C27.6073 33.2137 30.6257 30.7887 32.5635 27.5702C34.5012 24.3517 35.2322 20.5493 34.6257 16.8418C34.0193 13.1343 32.115 9.76295 29.2528 7.32959C26.3906 4.89623 22.7568 3.55924 19 3.55728Z" fill="#E6F1FF"/>
</svg>
