<svg width="32" height="28" viewBox="0 0 32 28" fill="none" xmlns="http://www.w3.org/2000/svg">
<path d="M15.6328 9.15477C14.6603 9.15422 13.7232 9.5341 13.0082 10.2187C12.8641 10.0921 12.6819 10.0217 12.4931 10.0196C11.9094 10.0247 11.3304 9.91067 10.789 9.68391C11.5565 8.6449 12.0274 7.40285 12.1479 6.09939H12.5096C12.7276 6.09939 12.9366 6.00947 13.0907 5.84941C13.2449 5.68936 13.3315 5.47228 13.3315 5.24593C13.3315 5.01958 13.2449 4.8025 13.0907 4.64244C12.9366 4.48239 12.7276 4.39247 12.5096 4.39247H10.1589V3.06676C10.1589 2.84041 10.0723 2.62333 9.91815 2.46328C9.76401 2.30322 9.55496 2.2133 9.33697 2.2133C9.11899 2.2133 8.90993 2.30322 8.75579 2.46328C8.60165 2.62333 8.51505 2.84041 8.51505 3.06676V4.39816H6.18081C5.96283 4.39816 5.75377 4.48808 5.59963 4.64813C5.44549 4.80819 5.3589 5.02527 5.3589 5.25162C5.3589 5.47797 5.44549 5.69505 5.59963 5.8551C5.75377 6.01516 5.96283 6.10508 6.18081 6.10508H10.4767C10.3653 7.053 10.0009 7.9497 9.42464 8.6939C9.00696 8.20469 8.68 7.63949 8.46026 7.02681C8.43035 6.91369 8.3783 6.80819 8.30736 6.71689C8.23642 6.62559 8.14812 6.55046 8.04797 6.49619C7.94781 6.44191 7.83796 6.40966 7.72527 6.40144C7.61257 6.39322 7.49946 6.40921 7.39298 6.44842C7.28651 6.48762 7.18896 6.5492 7.10643 6.62931C7.0239 6.70941 6.95815 6.80632 6.91331 6.91399C6.86846 7.02166 6.84547 7.13777 6.84577 7.25508C6.84607 7.37238 6.86966 7.48837 6.91506 7.59578C7.18438 8.34757 7.57539 9.04608 8.07122 9.66116C7.47281 9.89636 6.83703 10.0122 6.19725 10.0025C5.97927 10.0025 5.77021 10.0925 5.61607 10.2525C5.46193 10.4126 5.37534 10.6296 5.37534 10.856C5.37534 11.0823 5.46193 11.2994 5.61607 11.4595C5.77021 11.6195 5.97927 11.7095 6.19725 11.7095C7.32433 11.7485 8.44027 11.4672 9.42464 10.8958C10.2085 11.3831 11.0936 11.668 12.0055 11.7265C11.8204 12.202 11.7255 12.7101 11.726 13.2229V13.8602H6.01095C5.89245 13.8598 5.77527 13.8861 5.66745 13.9371C5.55963 13.9882 5.46372 14.0629 5.3863 14.156C5.30816 14.2494 5.25093 14.3595 5.21871 14.4785C5.1865 14.5976 5.18011 14.7226 5.19999 14.8445C5.19999 14.9014 5.3041 15.5443 5.4904 16.449C5.51149 16.5612 5.49954 16.6774 5.45612 16.7824C5.41269 16.8874 5.33981 16.9764 5.24697 17.0379C5.15413 17.0993 5.04562 17.1302 4.9356 17.1267C4.82557 17.1231 4.71913 17.0852 4.63013 17.018C2.90411 15.7093 1.06302 14.1162 0.487677 12.9953C0.463492 12.9496 0.436017 12.9059 0.405485 12.8645C0.140537 12.473 -0.00111399 12.0059 6.59764e-06 11.5274V2.34986C6.59764e-06 1.72664 0.23843 1.12894 0.662826 0.688257C1.08722 0.247574 1.66283 0 2.26301 0H16.3671C16.9673 0 17.5429 0.247574 17.9673 0.688257C18.3917 1.12894 18.6301 1.72664 18.6301 2.34986V9.17753L15.6328 9.15477ZM31.9999 13.2115V22.3663C32.0036 22.8452 31.8617 23.3131 31.5944 23.7034C31.5606 23.7506 31.533 23.8023 31.5123 23.857C30.9643 24.995 29.0958 26.571 27.3698 27.891C27.2808 27.9583 27.1744 27.9962 27.0643 27.9997C26.9543 28.0033 26.8458 27.9723 26.753 27.9109C26.6601 27.8495 26.5872 27.7605 26.5438 27.6555C26.5004 27.5504 26.4885 27.4342 26.5095 27.3221C26.6958 26.4117 26.7945 25.7688 26.7999 25.7119C26.8191 25.5901 26.8124 25.4655 26.7804 25.3468C26.7484 25.228 26.6918 25.1179 26.6146 25.0242C26.5373 24.9305 26.4414 24.8554 26.3333 24.8041C26.2253 24.7529 26.1078 24.7268 25.989 24.7275H15.6328C15.3347 24.7276 15.0396 24.6664 14.7643 24.5476C14.489 24.4288 14.2391 24.2547 14.0288 24.0353C13.8185 23.8159 13.652 23.5555 13.5389 23.2691C13.4259 22.9826 13.3684 22.6759 13.3698 22.3663V13.2115C13.3698 12.5883 13.6083 11.9906 14.0327 11.5499C14.4571 11.1093 15.0327 10.8617 15.6328 10.8617H29.7369C30.3371 10.8617 30.9127 11.1093 31.3371 11.5499C31.7615 11.9906 31.9999 12.5883 31.9999 13.2115ZM26.2904 21.1772L25.3424 18.7249L23.4684 13.8545C23.4561 13.8212 23.4414 13.7889 23.4246 13.7578L23.3917 13.7009L23.3424 13.6326L23.2931 13.5757L23.2383 13.5245L23.1671 13.4676L23.1232 13.4334L23.0356 13.3822C23.0174 13.3797 22.999 13.3797 22.9808 13.3822L22.8931 13.3538H22.8109H22.6465H22.5753L22.4821 13.3822C22.464 13.3797 22.4455 13.3797 22.4273 13.3822L22.3452 13.4334L22.2849 13.4619L22.2191 13.5188L22.1643 13.57L22.115 13.6269L22.0602 13.6952C22.0602 13.6952 22.0602 13.735 22.0328 13.7521L21.9835 13.8488L20.0657 18.7249L19.1178 21.1828C19.0742 21.2887 19.0516 21.4026 19.0513 21.5177C19.0509 21.6329 19.0729 21.7469 19.1158 21.853C19.1587 21.9592 19.2218 22.0553 19.3012 22.1357C19.3806 22.216 19.4747 22.279 19.578 22.3208C19.6757 22.3612 19.7798 22.3824 19.8849 22.3834C20.0524 22.3798 20.2149 22.3234 20.3509 22.2218C20.4869 22.1202 20.59 21.9782 20.6465 21.8144L21.3808 19.9084H24.0328L24.7671 21.8144C24.8223 21.9791 24.925 22.122 25.0613 22.2239C25.1976 22.3257 25.3608 22.3814 25.5287 22.3834C25.632 22.3819 25.7342 22.3606 25.8301 22.3208C25.9339 22.2796 26.0285 22.217 26.1084 22.1368C26.1882 22.0566 26.2515 21.9604 26.2946 21.854C26.3376 21.7477 26.3594 21.6333 26.3587 21.518C26.3579 21.4026 26.3347 21.2886 26.2904 21.1828V21.1772ZM22.0274 18.2014H23.3643L22.6958 16.4945L22.0274 18.2014Z" fill="#E6F1FF"/>
</svg>
