<svg width="34" height="34" viewBox="0 0 34 34" fill="none" xmlns="http://www.w3.org/2000/svg">
<path d="M17 0.68C7.98659 0.68 0.679993 7.9866 0.679993 17C0.679993 26.0134 7.98659 33.32 17 33.32C26.0134 33.32 33.32 26.0134 33.32 17C33.32 7.9866 26.0134 0.68 17 0.68ZM13.005 23.7643H9.70019V13.1291H13.005V23.7643ZM11.3322 11.8235C10.2884 11.8235 9.61349 11.084 9.61349 10.1694C9.61349 9.2361 10.3088 8.5187 11.3747 8.5187C12.4406 8.5187 13.0934 9.2361 13.1138 10.1694C13.1138 11.084 12.4406 11.8235 11.3322 11.8235ZM25.075 23.7643H21.7702V17.8704C21.7702 16.4985 21.2908 15.5669 20.0957 15.5669C19.1828 15.5669 18.6405 16.1976 18.4008 16.8045C18.3124 17.0204 18.2903 17.3264 18.2903 17.6307V23.7626H14.9838V16.5206C14.9838 15.1929 14.9413 14.0828 14.8971 13.1274H17.7684L17.9197 14.6047H17.986C18.4212 13.9111 19.4871 12.8877 21.2704 12.8877C23.4447 12.8877 25.075 14.3446 25.075 17.476V23.7643V23.7643Z" fill="#E6F1FF"/>
</svg>
