<svg width="31" height="31" viewBox="0 0 31 31" fill="none" xmlns="http://www.w3.org/2000/svg">
<path d="M15.6091 31C23.2087 31 29.6683 25.5703 30.9783 18.0907C31.0783 17.5008 30.8283 16.9108 30.3283 16.5808C29.8284 16.2508 29.1884 16.2508 28.6884 16.5708C27.0185 17.6507 25.0786 18.2207 23.0887 18.2207C17.409 18.2207 12.7793 13.591 12.7793 7.91128C12.7793 5.92141 13.3492 3.98152 14.4292 2.31162C14.7492 1.81166 14.7492 1.17168 14.4192 0.671704C14.0892 0.171732 13.4892 -0.0782537 12.9092 0.0217206C5.42969 1.33165 0 7.7913 0 15.3909C0 24.0004 6.99961 31 15.6091 31Z" fill="#E6F1FF"/>
</svg>
