<svg width="34" height="34" viewBox="0 0 34 34" fill="none" xmlns="http://www.w3.org/2000/svg">
<path d="M17 7.12903C11.5574 7.12903 7.12903 11.5568 7.12903 17C7.12903 22.4432 11.5574 26.871 17 26.871C22.4432 26.871 26.871 22.4432 26.871 17C26.871 11.5568 22.4432 7.12903 17 7.12903ZM17 23.5806C13.3712 23.5806 10.4194 20.6288 10.4194 17C10.4194 13.3712 13.3712 10.4194 17 10.4194C20.6288 10.4194 23.5806 13.3712 23.5806 17C23.5806 20.6288 20.6288 23.5806 17 23.5806ZM17 5.63596C17.9088 5.63596 18.6452 4.89906 18.6452 3.9908V1.64516C18.6452 0.73689 17.9088 0 17 0C16.0912 0 15.3548 0.736901 15.3548 1.64516V3.9908C15.3548 4.89907 16.0912 5.63596 17 5.63596ZM6.63795 8.96377C6.95926 9.28509 7.38019 9.44575 7.80112 9.44575C8.22206 9.44575 8.64352 9.28509 8.96485 8.96377C9.60695 8.32113 9.60695 7.27898 8.96431 6.63741L7.30576 4.9794C6.66311 4.33675 5.62151 4.33675 4.97886 4.9794C4.33675 5.62204 4.33675 6.66419 4.9794 7.30576L6.63795 8.96377ZM5.63542 17C5.63542 16.0917 4.89906 15.3548 3.99026 15.3548H1.64516C0.736363 15.3548 0 16.0917 0 17C0 17.9083 0.736363 18.6452 1.64516 18.6452H3.99026C4.89907 18.6452 5.63542 17.9083 5.63542 17ZM6.63795 25.0362L4.9794 26.6942C4.33675 27.3358 4.33675 28.378 4.97886 29.0206C5.30018 29.3419 5.72165 29.5026 6.14258 29.5026C6.56351 29.5026 6.98444 29.3419 7.30577 29.0206L8.96432 27.3626C9.60696 26.721 9.60696 25.6789 8.96486 25.0362C8.3222 24.3936 7.28058 24.3936 6.63795 25.0362ZM17 28.364C16.0912 28.364 15.3548 29.1009 15.3548 30.0092V32.3548C15.3548 33.2631 16.0912 34 17 34C17.9088 34 18.6452 33.2631 18.6452 32.3548V30.0092C18.6452 29.1009 17.9088 28.364 17 28.364ZM27.3626 25.0362C26.7199 24.3936 25.6789 24.3936 25.0362 25.0362C24.3936 25.6789 24.3936 26.72 25.0362 27.3626L26.6942 29.0206C27.0156 29.3419 27.4365 29.5026 27.8574 29.5026C28.2784 29.5026 28.6993 29.3419 29.0206 29.0206C29.6633 28.378 29.6633 27.3369 29.0206 26.6942L27.3626 25.0362ZM32.3548 15.3548H30.0092C29.1009 15.3548 28.364 16.0917 28.364 17C28.364 17.9083 29.1009 18.6452 30.0092 18.6452H32.3548C33.2631 18.6452 34 17.9083 34 17C34 16.0917 33.2631 15.3548 32.3548 15.3548ZM26.1994 9.44575C26.6203 9.44575 27.0413 9.28509 27.3626 8.96377L29.0206 7.30576C29.6633 6.66311 29.6633 5.62203 29.0206 4.9794C28.378 4.33677 27.3369 4.33675 26.6943 4.9794L25.0362 6.63741C24.3936 7.28006 24.3936 8.32114 25.0362 8.96377C25.3576 9.28509 25.7785 9.44575 26.1994 9.44575Z" fill="#E6F1FF"/>
</svg>
