<svg width="38" height="38" viewBox="0 0 38 38" fill="none" xmlns="http://www.w3.org/2000/svg">
<path d="M29.6875 17.9709C29.2675 17.9671 28.8488 17.9247 28.4367 17.8442C28.0404 17.761 27.6532 17.639 27.2808 17.48L27.0117 17.4167H26.8217C26.6633 17.4167 26.5842 17.5275 26.5842 17.7492V18.2717C26.5617 18.3707 26.5617 18.4735 26.5842 18.5725C26.6637 18.7028 26.7792 18.8072 26.9167 18.8734C27.2975 19.0639 27.7022 19.2024 28.12 19.285C28.6387 19.409 29.17 19.4728 29.7033 19.475C30.2398 19.4911 30.7752 19.4162 31.2867 19.2534C31.7092 19.1425 32.1033 18.9428 32.4425 18.6675C32.7631 18.4197 33.0276 18.1067 33.2183 17.7492C33.3999 17.363 33.4919 16.9409 33.4875 16.5142C33.4932 15.9848 33.3265 15.4679 33.0125 15.0417C32.5903 14.562 32.0416 14.2108 31.4292 14.0284L29.925 13.5534C29.5047 13.4446 29.1113 13.2506 28.7692 12.9834C28.6689 12.8871 28.5891 12.7716 28.5347 12.6437C28.4802 12.5158 28.4523 12.3782 28.4525 12.2392C28.4412 12.0513 28.4808 11.8639 28.5672 11.6967C28.6536 11.5294 28.7836 11.3887 28.9433 11.2892C29.3814 11.0767 29.8662 10.9786 30.3525 11.0042C31.0453 10.9874 31.7329 11.1281 32.3633 11.4159C32.4922 11.4816 32.6315 11.5244 32.775 11.5425C32.9333 11.5425 33.0125 11.4159 33.0125 11.1942V10.6242C33.0172 10.5011 32.9841 10.3795 32.9175 10.2759C32.8329 10.1681 32.7245 10.0814 32.6008 10.0225C32.4597 9.94479 32.3112 9.88115 32.1575 9.83253C31.9604 9.76298 31.7596 9.70483 31.5558 9.65836L30.8592 9.50003C30.6009 9.48137 30.3416 9.48137 30.0833 9.50003C29.6391 9.49237 29.1961 9.55107 28.7692 9.6742C28.3694 9.79087 27.994 9.97859 27.6608 10.2284C27.3518 10.4539 27.0974 10.7461 26.9167 11.0834C26.7225 11.4429 26.6243 11.8465 26.6317 12.255C26.6222 12.8266 26.8063 13.3847 27.1542 13.8384C27.5889 14.3621 28.1752 14.7382 28.8325 14.915L30.4158 15.39C30.8076 15.4816 31.1715 15.6662 31.4767 15.9284C31.6662 16.129 31.7687 16.3966 31.7617 16.6725C31.7651 16.8728 31.7157 17.0705 31.6184 17.2456C31.5211 17.4207 31.3794 17.5671 31.2075 17.67C30.7375 17.9064 30.2121 18.0104 29.6875 17.9709ZM20.4883 10.2917C20.4639 10.1365 20.392 9.99268 20.2825 9.88003C20.1641 9.79269 20.0171 9.75313 19.8708 9.7692H19C18.8544 9.76112 18.7101 9.79997 18.5883 9.88003C18.4729 9.98838 18.3999 10.1343 18.3825 10.2917L16.7992 17.2584L14.9942 10.2917C14.9654 10.1346 14.8878 9.99055 14.7725 9.88003C14.7725 9.88003 14.5667 9.7692 14.3608 9.7692H13.3317C13.1575 9.7692 13.0783 9.8642 13.0783 10.0384C13.0937 10.184 13.1256 10.3274 13.1733 10.4659L15.6433 18.6042C15.6754 18.749 15.7404 18.8844 15.8333 19C15.9578 19.0726 16.1013 19.1057 16.245 19.095H17.1475C17.2962 19.1051 17.4446 19.0721 17.575 19C17.6748 18.8767 17.7403 18.7293 17.765 18.5725L19.3483 11.7959L20.9317 18.5884C20.9448 18.7436 21.0121 18.8893 21.1217 19C21.2463 19.0871 21.398 19.1264 21.5492 19.1109H22.4517C22.5921 19.1178 22.731 19.0789 22.8475 19C22.9666 18.8924 23.0449 18.747 23.0692 18.5884L25.6183 10.45C25.6276 10.3658 25.6276 10.2809 25.6183 10.1967C25.6245 10.1388 25.6245 10.0804 25.6183 10.0225C25.6236 9.98595 25.6203 9.94864 25.6087 9.91355C25.597 9.87847 25.5774 9.8466 25.5512 9.82046C25.5251 9.79432 25.4932 9.77465 25.4581 9.763C25.4231 9.75135 25.3857 9.74805 25.3492 9.75336H24.3675C24.2222 9.74743 24.0785 9.7861 23.9558 9.8642C23.8584 9.98498 23.7881 10.1254 23.75 10.2759L22.1667 17.4167L20.4883 10.2917ZM9.13583 13.6642C8.76304 13.6153 8.38764 13.5888 8.01166 13.585C7.07983 13.5361 6.16216 13.8288 5.43083 14.4084C5.1194 14.6751 4.87221 15.0087 4.70772 15.3843C4.54322 15.7599 4.46567 16.1678 4.48083 16.5775C4.46241 16.9507 4.52188 17.3236 4.65546 17.6725C4.78903 18.0214 4.99377 18.3387 5.25666 18.6042C5.53922 18.865 5.8711 19.0665 6.23276 19.1971C6.59442 19.3276 6.97854 19.3844 7.3625 19.3642C7.96685 19.3816 8.56705 19.2592 9.11632 19.0065C9.66559 18.7538 10.1491 18.3777 10.5292 17.9075C10.6217 18.1198 10.7275 18.326 10.8458 18.525C10.9585 18.699 11.0857 18.8632 11.2258 19.0159C11.2641 19.0546 11.3097 19.0854 11.36 19.1064C11.4103 19.1275 11.4643 19.1383 11.5187 19.1383C11.5732 19.1383 11.6272 19.1275 11.6775 19.1064C11.7278 19.0854 11.7734 19.0546 11.8117 19.0159L12.4767 18.5725C12.5322 18.5382 12.5794 18.492 12.615 18.4372C12.6506 18.3825 12.6736 18.3205 12.6825 18.2559C12.7081 18.1734 12.7081 18.085 12.6825 18.0025C12.5542 17.7627 12.4431 17.514 12.35 17.2584C12.2652 16.9491 12.2278 16.6288 12.2392 16.3084V12.9675C12.277 12.4983 12.2193 12.0263 12.0697 11.58C11.92 11.1337 11.6814 10.7224 11.3683 10.3709C10.9659 10.0325 10.4982 9.78061 9.99432 9.6308C9.49039 9.48098 8.96103 9.43647 8.43917 9.50003C7.9047 9.49983 7.37248 9.56902 6.85583 9.70586C6.39579 9.81281 5.94954 9.97219 5.52583 10.1809C5.41408 10.2302 5.31619 10.3064 5.24083 10.4025C5.20214 10.5208 5.20214 10.6484 5.24083 10.7667V11.2892C5.24083 11.5109 5.24083 11.6059 5.4625 11.6059C5.51989 11.6183 5.57927 11.6183 5.63666 11.6059L6.00083 11.4792C6.32245 11.3213 6.65598 11.189 6.99833 11.0834C7.37117 10.9899 7.75397 10.9421 8.13833 10.9409C8.7504 10.8767 9.36345 11.0527 9.84833 11.4317C10.2254 11.9053 10.4016 12.5079 10.3392 13.11V13.8859L9.13583 13.6642ZM10.3708 15.0892V15.5167C10.3721 15.8262 10.3348 16.1347 10.26 16.435C10.1932 16.6872 10.0685 16.9203 9.89583 17.1159C9.63183 17.4262 9.28633 17.6565 8.89833 17.7809C8.55224 17.9026 8.18853 17.9668 7.82167 17.9709C7.62082 17.9858 7.41904 17.9598 7.22853 17.8945C7.03802 17.8292 6.86275 17.7259 6.71333 17.5909C6.57465 17.4406 6.46914 17.2629 6.40367 17.0692C6.3382 16.8755 6.31423 16.6703 6.33333 16.4667C6.32025 16.2392 6.3607 16.0119 6.45145 15.8029C6.5422 15.5939 6.6807 15.4091 6.85583 15.2634C7.31728 14.9399 7.87761 14.7886 8.43917 14.8359H9.42083C9.74189 14.9029 10.059 14.9875 10.3708 15.0892ZM31.2867 23.75C27.5015 25.3426 23.439 26.1712 19.3325 26.1884C13.836 26.1894 8.43393 24.7598 3.6575 22.04C3.2775 21.8025 2.97666 22.1984 3.30916 22.4992C7.6084 26.3857 13.2045 28.5259 19 28.5C23.5703 28.5113 28.0386 27.1488 31.825 24.5892C32.3633 24.0984 31.8725 23.4492 31.2867 23.75Z" fill="#E6F1FF"/>
<path d="M29.1017 22.2616C28.8008 22.4833 28.8483 22.7841 29.1808 22.7366C30.305 22.5941 32.7908 22.3091 33.2342 22.8791C33.6775 23.4491 32.7433 25.7766 32.3158 26.8216C32.1892 27.1383 32.4742 27.265 32.7592 27.0275C33.4801 26.3638 34.0327 25.538 34.3714 24.6184C34.71 23.6989 34.8249 22.7119 34.7067 21.7391C33.7968 21.3809 32.8155 21.2415 31.8419 21.3322C30.8683 21.423 29.9296 21.7414 29.1017 22.2616Z" fill="#E6F1FF"/>
</svg>
