<svg width="38" height="38" viewBox="0 0 38 38" fill="none" xmlns="http://www.w3.org/2000/svg">
<path d="M31.9358 15.5483C31.4901 15.5458 31.045 15.5829 30.6058 15.6591C30.4912 14.9658 30.2299 14.3049 29.8394 13.7206C29.449 13.1363 28.9384 12.642 28.3417 12.2708L27.8983 12.0175L27.5975 12.445C27.2197 13.0207 26.9463 13.6585 26.79 14.3291C26.6337 14.9198 26.5995 15.5361 26.6893 16.1404C26.7791 16.7448 26.9912 17.3245 27.3125 17.8441C26.5874 18.1673 25.8093 18.3551 25.0167 18.3983H4.16416C3.90233 18.3983 3.65098 18.5012 3.46436 18.6848C3.27775 18.8685 3.17082 19.1182 3.16666 19.38C3.14718 21.2098 3.45828 23.0282 4.085 24.7475C4.64759 26.4367 5.76321 27.887 7.25166 28.8641C9.41512 29.9623 11.8264 30.4805 14.25 30.3683C15.5332 30.3905 16.8158 30.2951 18.0817 30.0833C19.8559 29.7656 21.5637 29.15 23.1325 28.2625C24.4278 27.4771 25.5879 26.488 26.5683 25.3333C28.0304 23.6132 29.1726 21.6452 29.9408 19.5225H30.2417C30.889 19.5464 31.5347 19.4411 32.1409 19.2128C32.7471 18.9844 33.3018 18.6375 33.7725 18.1925C34.1835 17.8094 34.5028 17.3385 34.7067 16.815L34.8333 16.4666L34.5167 16.2133C33.7497 15.7212 32.8451 15.4882 31.9358 15.5483Z" fill="#E6F1FF"/>
<path d="M8.8825 14.8041H6.09583C6.0313 14.804 5.96915 14.8285 5.92207 14.8727C5.87499 14.9168 5.84653 14.9772 5.8425 15.0416V17.5433C5.84653 17.6077 5.87499 17.6682 5.92207 17.7123C5.96915 17.7564 6.0313 17.7809 6.09583 17.7808H8.8825C8.94703 17.7809 9.00918 17.7564 9.05626 17.7123C9.10334 17.6682 9.1318 17.6077 9.13583 17.5433V15.0416C9.1318 14.9772 9.10334 14.9168 9.05626 14.8727C9.00918 14.8285 8.94703 14.804 8.8825 14.8041ZM12.7458 14.8041H9.94333C9.8788 14.804 9.81665 14.8285 9.76957 14.8727C9.72249 14.9168 9.69403 14.9772 9.69 15.0416V17.5433C9.69403 17.6077 9.72249 17.6682 9.76957 17.7123C9.81665 17.7564 9.8788 17.7809 9.94333 17.7808H12.7458C12.8088 17.7808 12.8692 17.7558 12.9138 17.7112C12.9583 17.6667 12.9833 17.6063 12.9833 17.5433V15.0416C12.9833 14.9787 12.9583 14.9182 12.9138 14.8737C12.8692 14.8292 12.8088 14.8041 12.7458 14.8041ZM16.6567 14.8041H13.8542C13.7912 14.8041 13.7308 14.8292 13.6862 14.8737C13.6417 14.9182 13.6167 14.9787 13.6167 15.0416V17.5433C13.6167 17.6063 13.6417 17.6667 13.6862 17.7112C13.7308 17.7558 13.7912 17.7808 13.8542 17.7808H16.6567C16.7197 17.7808 16.7801 17.7558 16.8246 17.7112C16.8691 17.6667 16.8942 17.6063 16.8942 17.5433V15.0416C16.8942 14.9787 16.8691 14.9182 16.8246 14.8737C16.7801 14.8292 16.7197 14.8041 16.6567 14.8041ZM17.7175 14.8041C17.6815 14.7942 17.6437 14.7928 17.6071 14.8002C17.5705 14.8076 17.5361 14.8235 17.5068 14.8466C17.4775 14.8697 17.4541 14.8994 17.4384 14.9333C17.4228 14.9672 17.4153 15.0043 17.4167 15.0416V17.5433C17.4167 17.5745 17.4228 17.6054 17.4347 17.6342C17.4467 17.663 17.4642 17.6892 17.4862 17.7112C17.5083 17.7333 17.5345 17.7508 17.5633 17.7627C17.5921 17.7747 17.623 17.7808 17.6542 17.7808H20.5833C20.6463 17.7808 20.7067 17.7558 20.7513 17.7112C20.7958 17.6667 20.8208 17.6063 20.8208 17.5433V15.0416C20.8208 14.9787 20.7958 14.9182 20.7513 14.8737C20.7067 14.8292 20.6463 14.8041 20.5833 14.8041H17.7175ZM9.94333 11.2258H12.6667C12.7339 11.2258 12.7983 11.2525 12.8458 11.3C12.8933 11.3475 12.92 11.412 12.92 11.4791V13.9491C12.9271 13.9861 12.9258 14.0243 12.9163 14.0607C12.9067 14.0972 12.8892 14.131 12.8649 14.1599C12.8407 14.1887 12.8103 14.2117 12.776 14.2273C12.7417 14.2429 12.7043 14.2506 12.6667 14.25H9.94333C9.88034 14.25 9.81993 14.225 9.77539 14.1804C9.73085 14.1359 9.70583 14.0755 9.70583 14.0125V11.4633C9.70583 11.4321 9.71197 11.4012 9.72391 11.3724C9.73585 11.3436 9.75334 11.3174 9.77539 11.2954C9.79745 11.2733 9.82363 11.2558 9.85244 11.2439C9.88126 11.2319 9.91214 11.2258 9.94333 11.2258ZM13.8542 11.2258H16.6567C16.6879 11.2258 16.7187 11.2319 16.7476 11.2439C16.7764 11.2558 16.8025 11.2733 16.8246 11.2954C16.8467 11.3174 16.8642 11.3436 16.8761 11.3724C16.888 11.4012 16.8942 11.4321 16.8942 11.4633V13.9491C16.8942 14.0163 16.8675 14.0808 16.82 14.1283C16.7725 14.1758 16.708 14.2025 16.6408 14.2025H13.8542C13.7912 14.2025 13.7308 14.1775 13.6862 14.1329C13.6417 14.0884 13.6167 14.028 13.6167 13.965V11.4633C13.6167 11.4321 13.6228 11.4012 13.6347 11.3724C13.6467 11.3436 13.6642 11.3174 13.6862 11.2954C13.7083 11.2733 13.7345 11.2558 13.7633 11.2439C13.7921 11.2319 13.823 11.2258 13.8542 11.2258ZM17.7175 11.2258H20.5833C20.6145 11.2258 20.6454 11.2319 20.6742 11.2439C20.703 11.2558 20.7292 11.2733 20.7513 11.2954C20.7733 11.3174 20.7908 11.3436 20.8028 11.3724C20.8147 11.4012 20.8208 11.4321 20.8208 11.4633V13.9491C20.8308 13.9851 20.8322 14.0229 20.8248 14.0595C20.8174 14.0961 20.8015 14.1305 20.7784 14.1598C20.7552 14.1891 20.7255 14.2125 20.6916 14.2282C20.6578 14.2439 20.6206 14.2513 20.5833 14.25H17.7175C17.6761 14.2588 17.6332 14.2572 17.5926 14.2452C17.5521 14.2333 17.5151 14.2113 17.4852 14.1814C17.4553 14.1515 17.4334 14.1146 17.4214 14.074C17.4094 14.0334 17.4078 13.9905 17.4167 13.9491V11.4633C17.4153 11.426 17.4228 11.3889 17.4384 11.355C17.4541 11.3211 17.4775 11.2914 17.5068 11.2683C17.5361 11.2451 17.5705 11.2292 17.6071 11.2218C17.6437 11.2145 17.6815 11.2158 17.7175 11.2258Z" fill="#E6F1FF"/>
<path d="M20.52 7.63171H17.7175C17.5863 7.63171 17.48 7.73805 17.48 7.86921V10.3709C17.48 10.502 17.5863 10.6084 17.7175 10.6084H20.52C20.6512 10.6084 20.7575 10.502 20.7575 10.3709V7.86921C20.7575 7.73805 20.6512 7.63171 20.52 7.63171Z" fill="#E6F1FF"/>
<path d="M21.6125 14.8042C21.5495 14.8042 21.4891 14.8292 21.4446 14.8738C21.4 14.9183 21.375 14.9787 21.375 15.0417V17.5434C21.375 17.6064 21.4 17.6668 21.4446 17.7113C21.4891 17.7558 21.5495 17.7809 21.6125 17.7809H24.415C24.4462 17.7809 24.4771 17.7747 24.5059 17.7628C24.5347 17.7509 24.5609 17.7334 24.5829 17.7113C24.605 17.6893 24.6225 17.6631 24.6344 17.6343C24.6464 17.6054 24.6525 17.5746 24.6525 17.5434V15.0417C24.6525 15.0105 24.6464 14.9796 24.6344 14.9508C24.6225 14.922 24.605 14.8958 24.5829 14.8738C24.5609 14.8517 24.5347 14.8342 24.5059 14.8223C24.4771 14.8103 24.4462 14.8042 24.415 14.8042H21.6125Z" fill="#E6F1FF"/>
</svg>
