<svg width="38" height="38" viewBox="0 0 38 38" fill="none" xmlns="http://www.w3.org/2000/svg">
<g clip-path="url(#clip0_34_45)">
<path d="M19.3028 3.76673C15.9962 3.69069 12.7595 4.72455 10.1092 6.70327C7.45888 8.682 5.54786 11.4915 4.68112 14.6834C4.76187 14.6525 4.59444 14.7024 4.68112 14.6834C-1.45469 18.7221 -1.52831 27.5227 4.29163 32.0079L4.29756 31.996L4.28569 32.0459C6.14596 33.4475 8.41414 34.2012 10.7433 34.1917H18.9323L18.9822 34.2344H27.2021C37.791 34.3211 42.0458 20.615 33.2761 14.6834C32.5233 11.8971 30.9711 9.39213 28.8111 7.47767L28.7434 7.54536L28.7494 7.46461C26.1352 5.15785 22.7906 3.84787 19.3052 3.76554L19.3028 3.76673ZM18.734 10.3348C20.7005 10.2671 22.7228 10.9167 24.2511 12.1529C25.1949 12.9397 25.95 13.9285 26.4605 15.0461C26.9711 16.1638 27.2241 17.3819 27.2009 18.6105V19.4334C32.7916 19.3218 32.7916 27.7649 27.2009 27.6533H18.981L18.9691 27.6652V27.6034H10.7433C10.1614 27.6034 9.58669 27.4799 9.05469 27.2389C6.43862 26.0573 5.814 22.6183 7.84225 20.5841C9.87762 18.5559 13.3095 19.1805 14.497 21.7965L19.266 17.0275C17.6809 14.9614 15.396 13.5451 12.8404 13.0447C12.8713 13.0328 12.9022 13.0079 12.9271 13.0138C13.667 12.2002 14.563 11.5438 15.5619 11.0838C16.5607 10.6237 17.6419 10.3694 18.7411 10.336L18.734 10.3348Z" fill="#E6F1FF"/>
</g>
<defs>
<clipPath id="clip0_34_45">
<rect width="38" height="38" fill="white"/>
</clipPath>
</defs>
</svg>
