<svg width="38" height="38" viewBox="0 0 38 38" fill="none" xmlns="http://www.w3.org/2000/svg">
<path d="M33.9143 20.4918L29.873 6.73162V6.72791C29.591 5.8781 28.9193 5.37341 28.0807 5.37341C27.2123 5.37341 26.5035 5.87439 26.2363 6.67966L23.5867 14.584H14.4281L11.7785 6.67966C11.5113 5.87439 10.8025 5.37341 9.93418 5.37341C9.07695 5.37341 8.35703 5.92263 8.13808 6.73162L4.10058 20.4918C3.9373 21.0373 4.14511 21.657 4.60156 22.0021L18.2764 32.2592C18.3728 32.3927 18.5064 32.4929 18.6623 32.5486L18.9814 32.7861L19.2969 32.5486C19.4787 32.4855 19.6309 32.3742 19.7385 32.2183L33.4096 21.9984C33.8697 21.657 34.0775 21.0373 33.9143 20.4918ZM27.8951 7.17693C27.9322 7.11013 28.0027 7.10642 28.025 7.10642C28.0658 7.10642 28.1178 7.11755 28.1512 7.21775L30.3555 14.6322H25.4014L27.8951 7.17693ZM9.808 7.21404C9.8414 7.11755 9.89336 7.10642 9.93418 7.10642C10.0344 7.10642 10.0418 7.11013 10.0603 7.16951L12.5578 14.6359H7.66308L9.808 7.21404ZM5.89296 20.733L6.93945 17.1222L14.4504 27.1492L5.89296 20.733ZM8.63535 16.4135H13.1664L16.5359 26.9636L8.63535 16.4135ZM19.0334 28.7969L15.0553 16.4135H23.0078L19.0334 28.7969ZM24.893 16.4135H29.3275L21.5234 26.8338L24.893 16.4135ZM23.3826 27.3199L31.0754 17.0517L32.1701 20.733L23.3826 27.3199Z" fill="#E6F1FF"/>
</svg>
