<svg width="38" height="38" viewBox="0 0 38 38" fill="none" xmlns="http://www.w3.org/2000/svg">
<path d="M15.8539 21.7518L12.2851 22.3646C12.8026 23.812 13.7768 25.0518 15.0607 25.897L16.4303 22.5799C16.4622 22.526 16.4818 22.4657 16.4879 22.4033C16.4939 22.3409 16.4861 22.278 16.4651 22.2189C16.4303 21.9339 16.1421 21.7518 15.8539 21.7518ZM17.2235 17.138C17.5481 17.138 17.8363 16.8863 17.8363 16.5617L18.0168 12.9564L17.2948 13.1005C16.0306 13.3979 14.8713 14.0339 13.9413 14.9403L16.9338 17.0668C17.043 17.1016 17.1158 17.138 17.2235 17.138ZM15.637 19.4813C15.688 19.4227 15.7267 19.3545 15.7508 19.2806C15.7748 19.2068 15.7838 19.1288 15.7772 19.0514C15.7705 18.974 15.7484 18.8987 15.7121 18.8301C15.6757 18.7614 15.626 18.7007 15.5658 18.6517L12.8978 16.2719C12.1106 17.5979 11.7455 19.132 11.8513 20.6704L15.3488 19.6618C15.4929 19.6254 15.5658 19.589 15.637 19.4813ZM17.9439 20.7433L18.9193 21.2119L19.8914 20.7433L20.1448 19.6967L19.4592 18.8322H18.3778L17.6922 19.6967L17.9439 20.7433ZM20.0719 16.8863C20.2524 17.138 20.6118 17.1744 20.8636 17.0303L23.8197 14.9403C22.7238 13.8452 21.2862 13.1579 19.7458 12.9928L19.9627 16.6345C19.9624 16.6818 19.972 16.7285 19.9908 16.7719C20.0096 16.8152 20.0372 16.8542 20.0719 16.8863Z" fill="#E6F1FF"/>
<path d="M34.7447 22.3297L32.0055 10.5402C31.8266 9.96388 31.3928 9.49521 30.8513 9.20705L19.8566 3.94246C19.5684 3.79838 19.2438 3.76196 18.9557 3.76196C18.6675 3.76196 18.3429 3.76196 18.0547 3.83321L7.05692 9.13421C6.7861 9.25804 6.54757 9.4428 6.35998 9.67407C6.17238 9.90534 6.0408 10.1768 5.9755 10.4674L3.27117 22.3297C3.1635 22.9425 3.30758 23.5552 3.667 24.0603L11.2749 33.47C11.7072 33.9023 12.3199 34.192 12.9327 34.2285H25.0468C25.6959 34.2997 26.3087 34.0115 26.7061 33.47L34.314 24.0603C34.6734 23.5552 34.8175 22.9425 34.7447 22.3297ZM30.2401 23.123C30.1673 23.123 30.1324 23.123 30.0596 23.0865C30.0248 23.0501 30.0248 23.0501 29.9883 23.0501C29.9155 23.0501 29.8807 23.0153 29.8427 23.0153C29.6986 22.9789 29.5909 22.9076 29.4468 22.8348C29.37 22.8279 29.2959 22.8035 29.2299 22.7635H29.1951C28.8217 22.6183 28.4352 22.5096 28.0408 22.439H28.006C27.8996 22.4363 27.7964 22.4749 27.7178 22.5466C27.7178 22.5466 27.7178 22.583 27.6814 22.583L27.3917 22.545C26.7293 24.597 25.3455 26.3392 23.4967 27.4486L23.6043 27.7368C23.6043 27.7368 23.5695 27.7368 23.5695 27.7716C23.537 27.8253 23.5169 27.8857 23.5109 27.9482C23.5049 28.0107 23.513 28.0737 23.5347 28.1326C23.6788 28.4936 23.8592 28.853 24.111 29.1776V29.2489C24.1698 29.2996 24.2186 29.3608 24.2551 29.4294C24.3592 29.5343 24.4443 29.6564 24.5068 29.7904C24.5432 29.8252 24.5797 29.8616 24.5797 29.898C24.5797 29.898 24.6145 29.898 24.6145 29.9329C24.6807 30.1056 24.6934 30.2943 24.6509 30.4744C24.6292 30.5602 24.5889 30.6401 24.5328 30.7085C24.4767 30.777 24.4062 30.8322 24.3263 30.8702C24.2187 30.905 24.1458 30.9415 24.0366 30.9415C23.8944 30.9361 23.7561 30.8933 23.6358 30.8174C23.5154 30.7415 23.4172 30.6352 23.351 30.5092C23.3162 30.5092 23.3162 30.4744 23.3162 30.4744C23.2813 30.438 23.2813 30.4031 23.2433 30.3667C23.1721 30.259 23.1357 30.115 23.0992 29.9709L23.0264 29.754V29.7191C22.9081 29.3318 22.751 28.9573 22.5577 28.6013C22.4883 28.4991 22.387 28.4229 22.2696 28.3844C22.2696 28.348 22.2696 28.348 22.2332 28.348L22.0891 28.0962C21.7281 28.2039 21.3307 28.348 20.9348 28.4208C20.2857 28.6013 19.6365 28.6725 18.9889 28.6725C17.9164 28.6801 16.8521 28.4845 15.8523 28.0962L15.7082 28.3844C15.7082 28.4208 15.7083 28.4208 15.6718 28.4208C15.5543 28.4589 15.4528 28.5353 15.3837 28.6377C15.2032 28.9987 15.0227 29.3581 14.915 29.7555L14.8438 29.9725C14.8073 30.1165 14.7361 30.2242 14.6997 30.3683C14.6648 30.4047 14.6284 30.4395 14.6284 30.476C14.592 30.476 14.592 30.5108 14.592 30.5108C14.5262 30.6371 14.4281 30.7436 14.3076 30.8196C14.1872 30.8955 14.0487 30.9381 13.9064 30.943C13.8187 30.9356 13.7332 30.9114 13.6547 30.8718C13.492 30.7764 13.3716 30.6227 13.3181 30.4419C13.2646 30.261 13.2819 30.0666 13.3665 29.898C13.4029 29.898 13.4029 29.8616 13.4029 29.8616C13.4378 29.8252 13.4378 29.7904 13.4742 29.754C13.5818 29.6099 13.6547 29.4658 13.7259 29.393C13.7972 29.3201 13.8336 29.2853 13.87 29.2125V29.176C14.0969 28.8481 14.29 28.4979 14.4463 28.131C14.4673 28.0719 14.475 28.0089 14.4687 27.9465C14.4624 27.884 14.4423 27.8238 14.4099 27.77C14.4099 27.77 14.3751 27.77 14.3751 27.7352L14.5556 27.4819C14.2095 27.2997 13.8831 27.0821 13.5818 26.8327C12.1932 25.7574 11.1626 24.2869 10.6258 22.6147L10.3012 22.6495C10.3012 22.6495 10.3012 22.6147 10.2648 22.6147C10.1866 22.5424 10.0831 22.5037 9.97658 22.507H9.94175C9.53581 22.5765 9.13758 22.6852 8.75267 22.8316H8.71467C8.64342 22.8316 8.57058 22.868 8.49775 22.9045C8.39008 22.9393 8.246 23.0121 8.10192 23.0485C8.06708 23.0485 7.95783 23.0137 7.95783 23.0485C7.95783 23.085 7.95783 23.085 7.92142 23.085C7.85017 23.1214 7.81375 23.1214 7.74092 23.1214C7.57989 23.1384 7.41814 23.0967 7.28546 23.0039C7.15278 22.911 7.05812 22.7734 7.01892 22.6163C7.00093 22.5239 7.00166 22.4287 7.02105 22.3366C7.04045 22.2444 7.07813 22.1571 7.13186 22.0797C7.18559 22.0024 7.25428 21.9366 7.33387 21.8863C7.41347 21.8359 7.50234 21.802 7.59525 21.7866C7.63167 21.7502 7.63167 21.7502 7.66808 21.7502C7.73933 21.7502 7.77575 21.7154 7.81217 21.7154C7.95625 21.7154 8.10033 21.679 8.24442 21.679C8.31567 21.6441 8.3885 21.6441 8.46133 21.6441C8.87572 21.6103 9.28601 21.5377 9.68683 21.4272C9.7945 21.3544 9.90375 21.2831 9.94017 21.1739C9.94017 21.1739 9.975 21.1739 9.975 21.139L10.2632 21.0662C9.93858 19.011 10.4072 16.921 11.5251 15.154C11.5599 15.0828 11.5963 15.0464 11.6328 14.9735L11.4253 14.7645C11.4241 14.7747 11.422 14.7848 11.419 14.7946V14.7582L11.4253 14.7645C11.4412 14.6616 11.3763 14.535 11.3113 14.47C11.0232 14.1819 10.6622 13.965 10.3012 13.7496L10.0858 13.6404C9.9495 13.576 9.81682 13.5041 9.68842 13.425C9.65358 13.425 9.58075 13.3538 9.58075 13.3538C9.58075 13.3538 9.58075 13.3174 9.54592 13.3174C9.40316 13.195 9.3097 13.025 9.28291 12.8389C9.25611 12.6528 9.29781 12.4633 9.40025 12.3056C9.50792 12.1251 9.68842 12.0539 9.90533 12.0539C10.0887 12.0583 10.2658 12.1216 10.4104 12.2344L10.4468 12.2708C10.4817 12.3056 10.5181 12.3056 10.5545 12.342C10.6622 12.4513 10.735 12.559 10.8427 12.6666C10.8791 12.7015 10.9503 12.7379 10.9868 12.8107C11.2385 13.0989 11.5631 13.387 11.8877 13.6404C11.9589 13.6752 12.0317 13.7116 12.1046 13.7116C12.1758 13.7116 12.2123 13.6752 12.2487 13.6752H12.2851L12.502 13.8193C13.6906 12.5483 15.2371 11.6682 16.9369 11.2955C17.3692 11.2226 17.765 11.1514 18.1624 11.115L18.1988 10.8268V10.7555C18.3065 10.6843 18.3429 10.575 18.3793 10.4674C18.3793 10.0351 18.3793 9.63771 18.3081 9.24188V9.20546C18.3081 9.13421 18.3081 9.06138 18.2717 8.98855C18.2303 8.84793 18.2064 8.70276 18.2004 8.5563V8.37738C18.2004 8.19688 18.2717 8.01638 18.4173 7.8723C18.5978 7.6918 18.8132 7.58413 19.0301 7.62055C19.2092 7.6454 19.3721 7.73741 19.4859 7.87795C19.5997 8.01848 19.6558 8.19702 19.6428 8.37738V8.5943C19.6064 8.73838 19.6064 8.88246 19.5716 9.02655C19.5716 9.0978 19.5352 9.17063 19.5352 9.24188V9.2783C19.4592 9.71055 19.4592 10.108 19.4592 10.5038C19.4956 10.6115 19.5304 10.7191 19.6397 10.792V10.7555L19.6761 11.0437C21.3819 11.2219 23.0046 11.8709 24.3627 12.9184C24.6525 13.2065 24.9755 13.4947 25.2637 13.7829L25.5534 13.6024H25.5882C25.6231 13.6388 25.6959 13.6388 25.7323 13.6388C25.8052 13.6388 25.8764 13.6024 25.9492 13.5675C26.2738 13.3506 26.5984 13.0625 26.8502 12.7743C26.885 12.7379 26.9578 12.7015 26.9942 12.6302C27.0671 12.5225 27.1748 12.4133 27.284 12.3056C27.3188 12.3056 27.3552 12.2708 27.3917 12.2344L27.4265 12.198C27.571 12.0861 27.7473 12.0229 27.93 12.0175C28.1105 12.0175 28.3274 12.1251 28.4351 12.2708C28.6868 12.5954 28.614 13.0276 28.291 13.2794C28.291 13.3158 28.3258 13.3158 28.291 13.3522C28.2546 13.387 28.2182 13.387 28.1833 13.4235C28.0377 13.4947 27.93 13.5675 27.7859 13.6404L27.569 13.748C27.2101 13.9554 26.8718 14.1967 26.5588 14.4685C26.4876 14.5413 26.4512 14.6854 26.4512 14.793V14.8295L26.2358 15.0464C26.8122 15.9473 27.246 16.9575 27.4978 18.0025C27.7147 19.0475 27.7859 20.1289 27.6418 21.1739L27.93 21.2467C27.9523 21.304 27.9864 21.3561 28.03 21.3994C28.0736 21.4428 28.1259 21.4765 28.1833 21.4985C28.5792 21.6061 29.0114 21.679 29.4072 21.7154H29.4437C29.5122 21.744 29.5865 21.7559 29.6606 21.7502C29.8047 21.7502 29.9487 21.7502 30.0912 21.7866C30.1641 21.7866 30.2369 21.7866 30.2369 21.823C30.2369 21.8579 30.2717 21.8579 30.3082 21.8579C30.4825 21.8997 30.6392 21.9956 30.7558 22.1318C30.8724 22.268 30.9429 22.4376 30.9573 22.6163C30.903 22.7633 30.8053 22.8904 30.6773 22.9809C30.5493 23.0713 30.3968 23.1209 30.2401 23.123Z" fill="#E6F1FF"/>
<path d="M19.1346 23.3036C19.0175 23.2361 18.8798 23.2136 18.7473 23.2401C18.6148 23.2666 18.4964 23.3404 18.4142 23.4476L16.6472 26.6571C17.3692 26.8724 18.1624 27.0181 18.9193 27.0181C19.4592 27.0181 19.9643 26.9468 20.4693 26.8376C20.7211 26.7663 20.938 26.7299 21.1549 26.6935L19.4243 23.5569C19.3151 23.4476 19.2423 23.3748 19.1346 23.3036ZM24.9043 16.272L22.1999 18.723C22.1308 18.7935 22.0811 18.8808 22.0558 18.9763C21.983 19.3009 22.1635 19.6255 22.4881 19.6967L25.9128 20.6705C25.9899 19.9103 25.9407 19.1425 25.7672 18.3984C25.5929 17.6487 25.3017 16.9311 24.9043 16.272ZM21.622 21.7883C21.4956 21.8458 21.3936 21.9462 21.3342 22.0717C21.2748 22.1972 21.2618 22.3397 21.2974 22.4739L22.705 25.8638C23.5784 25.3134 24.3174 24.5744 24.8678 23.701C25.156 23.3051 25.3713 22.8349 25.5534 22.3314L21.9482 21.7186C21.8363 21.7235 21.7261 21.7471 21.622 21.7883Z" fill="#E6F1FF"/>
</svg>
