<svg width="38" height="38" viewBox="0 0 38 38" fill="none" xmlns="http://www.w3.org/2000/svg">
<path d="M33.25 19V26.125H4.75V7.125H17.8125V4.75H4.75C4.12011 4.75 3.51602 5.00022 3.07062 5.44562C2.62522 5.89102 2.375 6.49511 2.375 7.125V26.125C2.375 26.7549 2.62522 27.359 3.07062 27.8044C3.51602 28.2498 4.12011 28.5 4.75 28.5H14.25V33.25H9.5V35.625H28.5V33.25H23.75V28.5H33.25C33.8799 28.5 34.484 28.2498 34.9294 27.8044C35.3748 27.359 35.625 26.7549 35.625 26.125V19H33.25ZM21.375 33.25H16.625V28.5H21.375V33.25Z" fill="#E6F1FF"/>
<path d="M21.375 4.75H35.625V7.125H21.375V4.75Z" fill="#E6F1FF"/>
<path d="M21.375 9.5H35.625V11.875H21.375V9.5Z" fill="#E6F1FF"/>
<path d="M21.375 14.25H28.5V16.625H21.375V14.25Z" fill="#E6F1FF"/>
</svg>
