<svg width="38" height="38" viewBox="0 0 38 38" fill="none" xmlns="http://www.w3.org/2000/svg">
<path d="M33.25 19V26.125H4.75V7.125H13.0625V4.75H4.75C4.12011 4.75 3.51602 5.00022 3.07062 5.44562C2.62522 5.89102 2.375 6.49511 2.375 7.125V26.125C2.375 26.7549 2.62522 27.359 3.07062 27.8044C3.51602 28.2498 4.12011 28.5 4.75 28.5H14.25V33.25H9.5V35.625H28.5V33.25H23.75V28.5H33.25C33.8799 28.5 34.484 28.2498 34.9294 27.8044C35.3748 27.359 35.625 26.7549 35.625 26.125V19H33.25ZM21.375 33.25H16.625V28.5H21.375V33.25Z" fill="#E6F1FF"/>
<path d="M21.375 21.375H21.3631C21.1073 21.3723 20.8591 21.2871 20.6556 21.1319C20.4521 20.9768 20.3042 20.7601 20.2338 20.5141L18.1046 13.0625H13.0625V10.6875H19C19.2581 10.6874 19.5092 10.7713 19.7154 10.9267C19.9215 11.082 20.0714 11.3003 20.1424 11.5484L21.4177 16.0134L24.9909 4.3997C25.068 4.15869 25.2191 3.9481 25.4227 3.79782C25.6262 3.64753 25.872 3.5652 26.125 3.56251C26.3752 3.55875 26.62 3.63573 26.823 3.78204C27.026 3.92836 27.1764 4.13621 27.2519 4.37476L29.355 10.6875H35.625V13.0625H28.5C28.2507 13.0626 28.0076 12.9841 27.8054 12.8384C27.6031 12.6926 27.4519 12.4868 27.3731 12.2503L26.1701 8.64026L22.5102 20.5366C22.4356 20.7794 22.285 20.9919 22.0807 21.1428C21.8763 21.2937 21.629 21.3751 21.375 21.375Z" fill="#E6F1FF"/>
</svg>
